/* XPM */
static char *_324721fb16c4baa923d235e7598d937pXVM0VokGNbrTGqT[] = {
/* columns rows colors chars-per-pixel */
"16 16 187 2 ",
"   c None",
".  c #3723D0",
"X  c #3E28D4",
"o  c #442ED4",
"O  c #4933D5",
"+  c #4C35D4",
"@  c #4D37D7",
"#  c #4E3BD5",
"$  c #5039D7",
"%  c #523AD7",
"&  c #5339D9",
"*  c #5138DA",
"=  c #543CD9",
"-  c #563CDB",
";  c #563CDD",
":  c #583EDB",
">  c #583BDC",
",  c #5A3DDC",
"<  c #593EDD",
"1  c #5C3FDD",
"2  c #5A3EE1",
"3  c #5A47D0",
"4  c #5A49D4",
"5  c #5940DB",
"6  c #5A43DE",
"7  c #5C42DC",
"8  c #604BD3",
"9  c #6346DF",
"0  c #6546DF",
"q  c #6A53DA",
"w  c #6C59DF",
"e  c #745CDD",
"r  c #5A42E0",
"t  c #6847E2",
"y  c #694EE2",
"u  c #6E4AE4",
"i  c #7752E7",
"p  c #7254E4",
"a  c #705CE3",
"s  c #7B5AE5",
"d  c #7B53E9",
"f  c #705DEE",
"g  c #765EEE",
"h  c #7F5AE8",
"j  c #6B53F4",
"k  c #7C64F8",
"l  c #8055EC",
"z  c #815CEB",
"x  c #885FEE",
"c  c #8C5FEF",
"v  c #8660EA",
"b  c #8B60EF",
"n  c #916DED",
"m  c #916CEF",
"M  c #8A72E5",
"N  c #8A7EE0",
"B  c #907CEC",
"V  c #8D64F1",
"C  c #816FF4",
"Z  c #846EF6",
"A  c #8065FA",
"S  c #8D6EFA",
"D  c #9369F1",
"F  c #9068F3",
"G  c #966AF0",
"H  c #996FF4",
"J  c #8877F1",
"K  c #9971F3",
"L  c #9872F7",
"P  c #9D75F6",
"I  c #9175FA",
"U  c #A27FEE",
"Y  c #A47CF8",
"T  c #9782ED",
"R  c #9987F6",
"E  c #9C84FA",
"W  c #9D8BF8",
"Q  c #9B89FF",
"!  c #9D8AFE",
"~  c #9D8BFF",
"^  c #9D8CFF",
"/  c #AA95EE",
"(  c #A082F1",
")  c #AB8AF3",
"_  c #AA8EF7",
"`  c #AC8DF7",
"'  c #A083F9",
"]  c #A681F8",
"[  c #A384FA",
"{  c #A98AF8",
"}  c #A88DFA",
"|  c #A79DF2",
" . c #A998F2",
".. c #A493FD",
"X. c #A493FF",
"o. c #A694FE",
"O. c #AC9DFA",
"+. c #A999FF",
"@. c #AA9BFE",
"#. c #AC9CFE",
"$. c #AE9EFF",
"%. c #AE9FFF",
"&. c #B29FF2",
"*. c #AEA3EA",
"=. c #B1A8EF",
"-. c #BBA5F6",
";. c #B8A9F2",
":. c #B1A2FB",
">. c #B1A3FE",
",. c #B1A2FF",
"<. c #B1A3FF",
"1. c #B3A5FE",
"2. c #B4A6FF",
"3. c #BAA3FB",
"4. c #B5A8FD",
"5. c #B5A8FE",
"6. c #B6A8FF",
"7. c #B7A9FF",
"8. c #B7AAFF",
"9. c #BEA9F8",
"0. c #BFAFFA",
"q. c #B8ABFE",
"w. c #B9ABFF",
"e. c #BBAFFF",
"r. c #BCAFFC",
"t. c #BEB2FF",
"y. c #CCBDF7",
"u. c #C3B5FA",
"i. c #C1B5FE",
"p. c #C0B4FF",
"a. c #C4B8FE",
"s. c #C6BBFF",
"d. c #CCBFFB",
"f. c #C8BEFD",
"g. c #C9C0F6",
"h. c #CAC0FF",
"j. c #CBC1FF",
"k. c #CCC2FE",
"l. c #CDC3FF",
"z. c #CFC5FF",
"x. c #D0C5FB",
"c. c #D2C3FC",
"v. c #D1C7FF",
"b. c #D2CCFB",
"n. c #D2C8FF",
"m. c #D9CFFD",
"M. c #DEDAF6",
"N. c #D7D0FD",
"B. c #D9D2FF",
"V. c #DAD2FF",
"C. c #DAD4FE",
"Z. c #DED8FE",
"A. c #DFD9FF",
"S. c #E3DDF9",
"D. c #E1DBFD",
"F. c #E1DCFD",
"G. c #E4DFFD",
"H. c #E4DEFF",
"J. c #E5DFFF",
"K. c #E8E4FD",
"L. c #EAE6FD",
"P. c #E8E4FE",
"I. c #EBE7FF",
"U. c #ECE9FC",
"Y. c #EEEAFD",
"T. c #EDE9FE",
"R. c #EEEBFE",
"E. c #F0EDFE",
"W. c #F1EDFE",
"Q. c #F1EFFE",
"!. c #F0EEFF",
"~. c #F1EEFF",
"^. c #F1EFFF",
"/. c #F1F0FE",
"(. c #F2F0FF",
"). c #F3F1FF",
"_. c #F4F3FF",
"`. c #F5F3FF",
"'. c #F4F4FF",
"]. c #F6F6FE",
"[. c #F7F6FE",
"{. c #F7F7FF",
"}. c #F8F6FF",
"|. c #F9F9FF",
" X c #F9FAFF",
".X c #FCFAFF",
"XX c #FEFFFF",
/* pixels */
"            ' [ { `             ",
"        I S } c.m.3.Y ]         ",
"    Z A E 0.^. XI.d._ L P )     ",
"    k u.^.{.^.^./.{.9.V K K     ",
"  j R R.^.^.R./.^.`.XX-.V D G   ",
"  C K.`.^.I.R././.S.k.R.D V c U ",
"f b.}.N.1.5.F.^.`.^.&.S.( l x n ",
"J `.f.! ! @.1.5.k.K.{.{.y.d z v ",
"| J.o.+.$.>.2.5.w.t.C./. X/ i z ",
"=.v.>.5.t.2.$.$.O.0.k.V.^.;.u s ",
"*.v.p.s.>.Q ^ g 2 y B  .T p t M ",
"  V.v.a.....W r ; > > > 1 9 0   ",
"  I.A.i.5.:.a 6 * ; , 5 7 , e   ",
"    R.k.h.n.w X + # % = & q     ",
"      F.A.J.g.# . o O + 8       ",
"          /..XM.N 4 3           "
};
