/* XPM */
static char *bad94f647df24ad8e8d498ef267882f7df9eO0zrkgkUDNzD[] = {
/* columns rows colors chars-per-pixel */
"32 32 189 2 ",
"   c None",
".  c #3420CF",
"X  c #3924CF",
"o  c #3621D0",
"O  c #3D26D5",
"+  c #3F2BD2",
"@  c #422DD2",
"#  c #4732D5",
"$  c #4B35D5",
"%  c #4F3BD4",
"&  c #4C35D9",
"*  c #4F38D8",
"=  c #523AD6",
"-  c #543BDA",
";  c #5A3EDC",
":  c #5A3EE2",
">  c #533CF1",
",  c #5C48D1",
"<  c #5C42DD",
"1  c #5E4ADF",
"2  c #6246DE",
"3  c #6649DF",
"4  c #6A59D1",
"5  c #7053DD",
"6  c #7A62DE",
"7  c #7768DD",
"8  c #5C42E1",
"9  c #5A44EB",
"0  c #5C4AE9",
"q  c #6446E0",
"w  c #6947E2",
"e  c #654AE0",
"r  c #6B4CE2",
"t  c #644EEC",
"y  c #724FE5",
"u  c #764EE8",
"i  c #6C52E1",
"p  c #7352E4",
"a  c #7955E7",
"s  c #765BE2",
"d  c #7C55E9",
"f  c #725DED",
"g  c #7E5AE9",
"h  c #624DF2",
"j  c #6650F1",
"k  c #6851F6",
"l  c #6D55F8",
"z  c #745EF2",
"x  c #765EF9",
"c  c #785DF8",
"v  c #7D63E5",
"b  c #7C6BE4",
"n  c #7263E8",
"m  c #7964EE",
"M  c #7A63F5",
"N  c #7F6AF4",
"B  c #7A61FA",
"V  c #805BE7",
"C  c #8056ED",
"Z  c #845DEB",
"A  c #885FEE",
"S  c #8361E6",
"D  c #856DE7",
"F  c #896EE5",
"G  c #8560E9",
"H  c #8C63EE",
"J  c #956BEF",
"K  c #8473E2",
"L  c #9375EB",
"P  c #967DEA",
"I  c #9978EF",
"U  c #8D64F1",
"Y  c #8165FA",
"T  c #856AFA",
"R  c #896DFA",
"E  c #9266F1",
"W  c #946BF2",
"Q  c #9A6FF4",
"!  c #8973F6",
"~  c #8F7CF1",
"^  c #8F72FB",
"/  c #9671F5",
"(  c #9B74F5",
")  c #9F7AF7",
"_  c #9376FB",
"`  c #9976FA",
"'  c #967AFA",
"]  c #9C7CFA",
"[  c #A47DF8",
"{  c #A87FF9",
"}  c #9287E0",
"|  c #9484F3",
" . c #9D82F0",
".. c #9E8CF6",
"X. c #9582FF",
"o. c #9B83FB",
"O. c #9B89FE",
"+. c #A185EC",
"@. c #A196E5",
"#. c #A794EC",
"$. c #A683F3",
"%. c #AA87F7",
"&. c #A289F5",
"*. c #A580F8",
"=. c #AA85F8",
"-. c #A18EFD",
";. c #AA8BFA",
":. c #B08EF7",
">. c #A394F4",
",. c #AD93F5",
"<. c #A998F4",
"1. c #A493FE",
"2. c #AC96FC",
"3. c #A798FE",
"4. c #AC9CFF",
"5. c #B095F7",
"6. c #B69DF9",
"7. c #B9B2EA",
"8. c #AFA0FE",
"9. c #B4A6F3",
"0. c #BBA5F6",
"q. c #BBA8F4",
"w. c #B3A4FE",
"e. c #B9A2F9",
"r. c #B6A9FF",
"t. c #BAADFE",
"y. c #BEB1FF",
"u. c #C1B4F6",
"i. c #C8BBF3",
"p. c #C2B6FE",
"a. c #C6BBFE",
"s. c #CABEFC",
"d. c #CCC3F7",
"f. c #CDC2FD",
"g. c #D7CFF5",
"h. c #D1C6FE",
"j. c #D4CBFE",
"k. c #D8CEFF",
"l. c #D7D0F5",
"z. c #DAD3FE",
"x. c #DED9FC",
"c. c #E3DDFD",
"v. c #E6E1FC",
"b. c #E8E3FE",
"n. c #EAE7FE",
"m. c #EAE5FE",
"M. c #ECE7FC",
"N. c #E9E5FD",
"B. c #EBE8FF",
"V. c #EBE8FD",
"C. c #ECE9FF",
"Z. c #EDEAFF",
"A. c #EEEBFF",
"S. c #EEEAFF",
"D. c #EEEBFD",
"F. c #EFECFD",
"G. c #EFECFF",
"H. c #EFEDFF",
"J. c #EEEBFE",
"K. c #F0EDFD",
"L. c #F0EDFF",
"P. c #F0ECFF",
"I. c #F0EEFF",
"U. c #F1EEFF",
"Y. c #F1EFFF",
"T. c #F1EEFE",
"R. c #F2EFFF",
"E. c #F2EEFD",
"W. c #F1EEFF",
"Q. c #F1F0FF",
"!. c #F2F0FF",
"~. c #F3F1FF",
"^. c #F3F0FE",
"/. c #F3F2FF",
"(. c #F3F0FD",
"). c #F4F2FF",
"_. c #F4F3FF",
"`. c #F5F3FE",
"'. c #F4F1FF",
"]. c #F5F4FF",
"[. c #F6F4FF",
"{. c #F7F7FE",
"}. c #F4F3FF",
"|. c #F8F7FF",
" X c #F9F7FF",
".X c #F9F9FF",
"XX c #FBFBFF",
"oX c #FDFDFF",
"OX c #FCFBFF",
/* pixels */
"                            5.6.6.5.                            ",
"                    &.o.[ o.] ` ` ] [ *.=.:.                    ",
"                ' ' ` ` ` _ %.0.h.h.s.e.[ { { %.                ",
"              _ ^ _ _ ^ o.s.K.XXK.x.j.;.( [ [ [ [               ",
"          ! T R R T R &.v.XX'.Q.b.z.t.5.i.[ ` ) ( [ $.          ",
"        ! T T B o.t.g.K.].K.'.K.P.M.j.x.i./ ( ` ( ( [ $.        ",
"        c c ! a.K.|.].'.K.Q.Q.Q.'.'.].Z.,.E / ( ( ( ( Q $.      ",
"      x x ..c.K.H.K.K.K.K.K.K.Q.R.R.'.].R.0.U / J Q ( / W       ",
"    N l M <.j.N.H.H.H.H.K.K.K.Q.K.'.Q.Q.'.XXq.H W W W W W Q     ",
"    k k x u.D.H.Z.H.Z.H.K.K.Q.K.Q.K.Q.].].].|.,.H J E E W E     ",
"  m h z g.].Z.Z.Z.Z.K.K.K.K.K.K.K.K.K.c.N.'.|.c.U U U H E E J   ",
"  h h d.].Z.B.H.K.'.Q.Z.N.H.K.K.K.Q.Q.i.o.j.].].I Z H H A H H   ",
"  > >.].B.B.K.H.z.p.w.4.d.Z.K.H.K.K.Q.R. .g x.XX%.C A A A A A +.",
"f j c.H.B.H.z.4.O.X.O.h.Z.N.H.Q.'.Q.K.'.K.#.i.oXu.u A Z A H Z I ",
"t | _.B.H.s.O.O.1.1.3.w.4.w.t.s.z.M.'.K.Q.XX(.`.D.H d Z Z Z Z H ",
"9 u.Q.H.d.O.-.1.1.3.3.3.3.4.3.4.4.t.j.K.'.K.K.E.{.i.u g V V Z Z ",
"0 z.Q.z.1.3.3.3.4.4.4.8.w.w.w.w.t.r.w.p.x._.Q.Q.Q.].q.a g g g V ",
"n c.H.y.3.8.8.8.w.w.w.w.w.w.t.t.t.t.y.t.y.k.H.Q.Q.].l.P a g g V ",
"b c.v.w.4.w.w.w.w.r.t.t.t.t.t.p.p.a.a.a.a.p.f.c.K.].N.P y a p S ",
"  x.z.w.r.r.t.t.y.y.y.4.1.O.O.O.....w.f.f.f.f.f.j.c.z.L r p p F ",
"  z.z.t.y.y.y.y.a.r.O.X.X.O.O.f : : 8 v <.s.j.j.h.9.S e y p r   ",
"  l.k.p.a.a.f.f.w.X.O.O.O.3.m - 8 < 8 8 < 3 S D s q q r r r i   ",
"    z.f.f.f.h.y.O.1.3.1.3...8 ; ; < 8 8 q < ; < 2 q 3 e 3 w 5   ",
"    x.j.j.j.j.6.3.4.4.1.~ 3.* = : ; - < < < 2 < 2 2 2 3 3 3     ",
"      z.z.z.f.w.w.w.r.4.1 >.0 * - ; ; ; ; < < < < < 2 2 ; 6     ",
"      N.c.v.f.t.y.y.y.p.< < i & * * - = - = ; ; ; < 2 < 2       ",
"        B.B.f.y.a.a.p.h.b O # & & * * = = = = ; ; < ; ;         ",
"          Q.j.f.f.h.j.k.9.+ # $ & & $ * = = = = = = =           ",
"            x.j.z.z.z.z.x.K . $ # # $ $ = $ = % % =             ",
"              N.c.c.c.c.b.v.7 . + # $ # $ $ $ $ ,               ",
"                  H.H.Z.Z.Q.Q.@., X X + @ $ ,                   ",
"                        ].XX{.oXN.7.} 4                         "
};
