/* XPM */
static char *_d71ab631c3d430b8c4b8321d3fc1d070YcenDfNzsEwMdor[] = {
/* columns rows colors chars-per-pixel */
"64 64 211 2 ",
"   c None",
".  c #331FCC",
"X  c #3622CE",
"o  c #3A24D1",
"O  c #3A26D0",
"+  c #412CCE",
"@  c #4530CE",
"#  c #4933CF",
"$  c #4F3CCF",
"%  c #432DD3",
"&  c #4632D4",
"*  c #4B35D5",
"=  c #4F39D5",
"-  c #4C36D9",
";  c #4F38D9",
":  c #4530D8",
">  c #523AD6",
",  c #543CDA",
"<  c #593FDC",
"1  c #5036D5",
"2  c #4D38ED",
"3  c #553AE1",
"4  c #5C3EE1",
"5  c #4C36F0",
"6  c #543DF0",
"7  c #583FF3",
"8  c #623FE0",
"9  c #5B42D3",
"0  c #5E4BD2",
"q  c #5C42DD",
"w  c #5D49DE",
"e  c #5743D6",
"r  c #604CCF",
"t  c #6150CF",
"y  c #6245DE",
"u  c #6549DF",
"i  c #684BDF",
"p  c #6E57D7",
"a  c #6D52DC",
"s  c #6E5DD9",
"d  c #6957D6",
"f  c #7364CD",
"g  c #7464D7",
"h  c #7F66DF",
"j  c #7C6ED9",
"k  c #5D42E1",
"l  c #5945EE",
"z  c #5645E9",
"x  c #5C46F1",
"c  c #5D48F3",
"v  c #6245E0",
"b  c #654BE1",
"n  c #6B4CE2",
"m  c #614CED",
"M  c #724EE5",
"N  c #744BE9",
"B  c #6453E1",
"V  c #6F50E3",
"C  c #6B57EE",
"Z  c #7453E4",
"A  c #7956E6",
"S  c #745DE4",
"D  c #7A54EA",
"F  c #7E5AE9",
"G  c #785CE9",
"H  c #624CF3",
"J  c #684EF4",
"K  c #6651F3",
"L  c #6B55F5",
"P  c #6E58F6",
"I  c #725BF6",
"U  c #7057F9",
"Y  c #755CF9",
"T  c #795EF8",
"R  c #7E6CE6",
"E  c #7662ED",
"W  c #7E68EF",
"Q  c #7C65EF",
"!  c #7D67F4",
"~  c #7D6AF0",
"^  c #7C63F9",
"/  c #816ADD",
"(  c #835CEB",
")  c #895FEE",
"_  c #8157EE",
"`  c #8364E5",
"'  c #846DE3",
"]  c #896BE6",
"[  c #8661EB",
"{  c #8B62EE",
"}  c #816DEE",
"|  c #8C6AEB",
" . c #9065EF",
".. c #926CED",
"X. c #8A75E9",
"o. c #987FE6",
"O. c #9775ED",
"+. c #9E7AEF",
"@. c #907DEC",
"#. c #8D64F0",
"$. c #836EF4",
"%. c #8C6BF6",
"&. c #8267F9",
"*. c #856AFA",
"=. c #896EFB",
"-. c #8561F5",
";. c #9166F0",
":. c #946CF2",
">. c #9A6DF3",
",. c #8A73F4",
"<. c #8D72FB",
"1. c #8F7AFD",
"2. c #8D79F0",
"3. c #9671F4",
"4. c #9B74F5",
"5. c #977EF0",
"6. c #9D7AF6",
"7. c #9275FA",
"8. c #9876F9",
"9. c #947AFC",
"0. c #9C7CFB",
"q. c #A27EEF",
"w. c #A077F6",
"e. c #A27CF7",
"r. c #A37DF9",
"t. c #A87FF9",
"y. c #9587DF",
"u. c #9683E6",
"i. c #9683EC",
"p. c #9B86EC",
"a. c #9E8CED",
"s. c #9583F2",
"d. c #9A84F5",
"f. c #9C8AF3",
"g. c #9582FE",
"h. c #9A85FD",
"j. c #9D8BFE",
"k. c #9F90FF",
"l. c #A28AEB",
"z. c #A185EE",
"x. c #A790EE",
"c. c #A59BE2",
"v. c #A584F4",
"b. c #A984F7",
"n. c #A58CF4",
"m. c #AB8DF6",
"M. c #A482FA",
"N. c #A982F9",
"B. c #A08EFE",
"V. c #AA8AF8",
"C. c #B18DF7",
"Z. c #A392F3",
"A. c #AD93F3",
"S. c #A494FF",
"D. c #A897FF",
"F. c #A698FF",
"G. c #AC9CFE",
"H. c #AA9AF0",
"J. c #B399F6",
"K. c #B09FFF",
"L. c #BCAEEE",
"P. c #B5AAEB",
"I. c #AFA0FF",
"U. c #B4A3F4",
"Y. c #B9A3F4",
"T. c #BBABF5",
"R. c #B3A4FF",
"E. c #BCA4F8",
"W. c #B6A9FF",
"Q. c #BAADFF",
"!. c #B4A8F3",
"~. c #BFB5F5",
"^. c #BEB2FE",
"/. c #C4BBE7",
"(. c #C2B4F6",
"). c #C5B9F5",
"_. c #CABDF3",
"`. c #C1B5FE",
"'. c #C5BAFE",
"]. c #C9BEFE",
"[. c #CDC5F4",
"{. c #CDC3FE",
"}. c #D1C6F5",
"|. c #D5CBF4",
" X c #D1C6FD",
".X c #D6CDFE",
"XX c #D4CCFE",
"oX c #D8CFFF",
"OX c #DCD4F7",
"+X c #D7D0FE",
"@X c #DAD3FF",
"#X c #DBD4FE",
"$X c #DFD9FD",
"%X c #DED9F4",
"&X c #E3DDFD",
"*X c #E6E2FE",
"=X c #E6E1FD",
"-X c #EAE6FE",
";X c #EAE6FE",
":X c #ECE9FE",
">X c #EEEBFF",
",X c #F1EFFE",
"<X c #F2EFFF",
"1X c #F1EEFD",
"2X c #F1EEFF",
"3X c #F2F0FF",
"4X c #F6F5FF",
"5X c #F3F1FF",
"6X c #F8F6FE",
"7X c #F9F8FE",
"8X c #FBFBFF",
/* pixels */
"                                                                                                                                ",
"                                                  A.S.M.M.h.M.M.M.r.M.N.V.V.C.                                                  ",
"                                            M.h.9.r.r.h.r.M.M.M.M.M.M.M.M.M.M.N.N.V.C.                                          ",
"                                      n.g.0.9.0.M.h.0.r.r.h.M.0.0.0.0.w.0.r.r.M.M.N.N.N.C.                                      ",
"                                  d.9.9.9.9.9.0.9.0.0.r.0.8.8.M.V.A.E.T.(.J.J.C.M.t.N.N.t.r.b.                                  ",
"                                7.7.7.9.9.0.9.0.0.0.8.3.0.E.}.&X3X4X4X3X*X&X.XE.r.N.t.t.t.N.t.b.m.                              ",
"                            9.<.7.7.7.7.8.8.9.8.8.<.6.(.=X4X8X4X3X=X@XXX{.{.Q.r.M.r.w.b.t.t.r.e.r.e.                            ",
"                          <.<.<.<.<.<.7.7.7.9.7.<.J.=X4X4X,X,X,X;X*X$XXX X{.V.w.w.w.w.e.e.w.e.r.w.r.w.m.                        ",
"                        =.=.=.<.<.<.<.7.<.7.%.%.(.4X4X,X5X<X,X,X3X-X$X.X.X(.:.4.b.J.b.6.6.4.w.e.w.6.e.w.e.                      ",
"                    f.^ =.=.=.=.<.=.=.%.&.%.7.).8X<X,X,X,X<X<X,X*X$X#X@X@Xv.V.XX,X>Xv.4.0.6.0.6.6.e.6.w.4.e.                    ",
"                  ,.^ *.*.*.*.=.*.&.*.v.Y.}.=X5X,X,X,X,X,X<X<X,X1X>X*X&X[.U.&X-X>XT.:.0.0.4.6.w.4.4.w.w.w.w.w.                  ",
"                2.^ *.*.*.*.*.^ 7.U.OX,X6X4X5X,X,X,X,X,X,X<X<X<X,X5X5X3X=X$X.XXX{.6.7.3.4.4.4.4.w.4.4.4.4.w.>.q.                ",
"                ^ ^ &.&.^ ^ $.T.*X4X5X,X1X,X,X>X,X1X,X,X,X,X,X<X,X3X3X3X5X5X:X.XJ.%.4.4.3.3.4.3.4.4.4.4.w.4.w.4.6.              ",
"              ^ ^ ^ ^ ^ ^ Z.&X4X,X1X1X1X1X>X,X1X,X,X1X1X,X,X,X,X,X3X3X3X,X5X5X4X|.d.%.4.>.3.3.3.3.4.+.4.4.4.4.4.>.v.            ",
"            ! T ^ ^ Y ! ).6X5X1X>X>X>X,X>X,X1X1X1X1X,X1X,X,X,X,X,X<X<X,X5X,X3X5X8X>XA.{ :.7.:.:.3.>.>.3.3.4.>.4.>.>.            ",
"          2.L T ^ U $.OX1X&X#X&X*X>X1X,X>X1X>X1X1X,X1X1X,X,X,X,X,X,X<X5X,X5X3X3X,X5X8XY.#.:.3.3.O.3.>.3.3.O.>.>.>.>.>.          ",
"          L Y Y I ,.[.XX`.{.$X-X>X1X1X>X>X1X1X1X>X,X,X,X1X,X,X,X,X,X,X<X,X5X3X3X,X5X5X8XT.#.:.:.:.:.:.3.:.:.3.:.>.:.;.q.        ",
"        $.L I I I ,.$.! !.-X>X>X>X>X>X1X1X>X1X>X1X1X>X,X>X1X,X,X,X,X,X,X<X,X,X3X3X3X3X5X8XU.[ :.:.:.:.:.:.:.:.:.;.:.>.;.        ",
"        L P P I I J E ).,X>X>X>X>X1X>X>X1X>X>X>X,X,X,X>X,X>X,X,X,X,X,X,X,X<X,X5X3X3X,X5X5X5Xl.#.:.%.| :.;.;.;.;.:.>.;.;.q.      ",
"      ~ J P L L H X.&X4X>X>X>X>X>X>X>X1X>X1X>X,X>X>X1X1X,X1X,X>X,X,X,X,X,X,X,X3X3X3X3X3X5X4X=XO.#.:.#.#.;.;.:.:. .;...;.>.      ",
"      K L L L H s.>X3X:X>X>X>X;X>X:X>X>X>X,X>X>X>X1X>X,X,X,X,X>X,X,X1X1X1X,X5X4X5X4X3X3X3X3X8X).( #.#.#.#.#.;.;. .;.;. . .w.    ",
"      H K L c i.>X3X:X:X;X>X>X>X:X>X>X>X>X>X>X,X,X>X,X>X>X>X,X,X,X,X1X,X1X3X+X}.@X&X1X5X3X3X5X1XO.) #.#.;.{ { {  . . . . .;.    ",
"    C H K x $.-X,X;X;X>X;X>X>X>X>X>X>X>X>X>X>X,X,X>X>X,X,X,X,X,X,X>X1X1X,X5X$XB.G.^. X-X3X3X3X4Xv.( #.#.{ { { { )  . . .;.)     ",
"    H K m C OX3X;X;X>X>X;X>X;X>X>X:X1X,X<X5X,X,X,X,X>X>X>X>X>X3X1X1X1X,X>X,X4X!.[ 7.J.XX>X3X,X8Xx._ { ( { { { { ) ) )  . .) q.  ",
"    c K x !.4X;X>X;X;X>X>X;X>X>X1X,X:X$X[.^.Q.I.I.~.OX>X>X,X>X>X1X>X>X,X,X,X,X1Xo.D D Z.&X5X3X8XT.D ) ) ) { ( { {  .{ ) { { |   ",
"  E x x R >X;X;X;X>X;X>X>X;X3X>X+X(.S.g.g.g.g.h.~.=X,X>X1X>X>X3X1X1X1X1X1X>X,X5X=X| N N _.4X3X4X.X_ ( ) ( ( ) ) ) ) [ { { { {   ",
"  K x l ).4X-X;X>X;X;X;X>X>X.XR.h.g.h.j.j.h.I.=X4X,X>X>X>X>X>X>X>X,X1X,X,X>X,X,X4X=Xu.8 ] 5X5X4X-X| D ( ) ( ( { ) { { { { { _   ",
"  x 7 ~ >X;X;X-X;X;X>X3X&XU.h.g.j.B.B.B.j.U.-X>X;X;X:X,X3X3X3X3X,X>X1X>X1X1X1X,X,X5X5X[.L.>X3X1X8XA.D ) ( ( ( ( ( ( ( { ( { _ l.",
"  x 6 !.3X-X-X-X;X;X1X|.j.g.j.j.j.B.k.S.k.G.I.G.F.G.I.W.^.).+X=X,X5X3X,X1X1X1X1X1X>X,X4X6X,X,X,X4XOXD ( D ( ( ( ( ( ( ` ( [ ( O.",
"  6 m OX>X-X-X-X;X,X{.h.h.S.j.S.S.S.S.S.S.S.S.S.F.F.F.F.F.F.F.I.Q.{.&X,X,X,X1X>X1X1X1X1X<X,X,X,X,X8Xx.N ( ( ( ( ( ( ( ( [ [ ( | ",
"  2 } ,X-X-X-X-X,X{.f.j.S.j.S.S.S.S.S.F.F.F.D.G.G.G.G.G.I.I.I.I.G.G.R.(.#X,X,X1X1X1X,X1X<X1X,X,X<X4X=X` D ( F ( F F ( ( ( ( ( ] ",
"  5 Z.5X-X-X-X>XOXj.j.S.S.S.S.S.S.D.D.D.D.G.G.G.G.G.I.I.I.I.R.R.E.R.R.R.R.'.&X,X1X1X1X1X1X1X,X,X,X1X8X_.Z A F F F F ( ( ( ( ( ` ",
"  5 ~.3X;X*X;X=XG.S.S.F.S.D.D.G.D.G.G.F.G.I.I.I.I.I.R.I.R.R.R.R.W.W.W.W.W.R.W.XX>X3X>X,X,X>X,X,X,X1X,X4XP.M A _ F ( F ( F F ( ` ",
"  z |.>X;X-X>X).j.D.D.D.G.G.G.G.G.G.I.I.I.I.I.R.R.R.R.R.R.W.W.W.W.Q.Q.Q.Q.^.Q.W.'.=X3X1X,X,X>X,X,X,X,X3X7XL.M A F A F F F ( A ` ",
"  z &X>X;X;X&XG.D.D.D.G.G.G.D.G.I.I.I.I.I.I.I.I.R.R.R.W.R.W.W.W.Q.W.Q.Q.^.^.^.^.Q.^.+X3X3X,X>X,X,X,X,X<X=X-X}.] A A F F ( A A ` ",
"  z =X;X;X>X].S.G.I.G.I.I.I.R.I.R.I.W.I.W.W.W.W.W.W.W.W.Q.Q.Q.Q.Q.^.Q.^.^.`.^.^.'.^.^.{.-X,X,X,X,X,X,X5X-X' p.l.A A A A A _ A ` ",
"  B =X-X;X*XW.G.I.R.I.R.R.R.R.R.W.R.W.W.W.W.W.W.W.Q.Q.Q.Q.^.^.^.^.^.`.`.^.^.'.`.'.'.'.`.'.$X>X3X1X,X>X,X4X}.n n Z A A A A A M ] ",
"  B &X-X;XOXI.R.R.R.R.R.W.R.R.W.W.W.W.W.Q.Q.Q.Q.^.^.^.^.^.^.^.`.`.`.`.`.^.'.'.'.'.'.'.'.'.'.{.$X:X,X3X3X5X8X%X` M A M A A A M o.",
"  B &X;X;X{.I.W.W.W.W.Q.Q.W.Q.Q.Q.Q.Q.^.^.^.^.^.R.D.S.j.h.j.j.S.D.W.^.'.{.{.'.'.'.'.{.'.].].].]. X@X&X&X&X=X].F M Z Z Z A A M   ",
"  a +X>X*X'.W.W.Q.Q.Q.Q.Q.^.Q.Q.Q.^.^.^.^.Q.F.g.9.1.1.9.9.g.g.h.1.W E E @.I.{. X{.'.{.{.{.{.{.{.{.].{.{..X~.Z n Z M Z Z M Z Z   ",
"    [.>X=X`.Q.^.^.Q.^.^.`.^.`.`.^.^.'.^.F.g.1.g.g.j.g.g.j.j.d.I v 4 k k 4 k S Z.]..XXX X{.{. X X XXXoXoXH.M n Z M Z V Z Z Z Z   ",
"    ~.,X=X`.^.`.`.`.`.`.`.`.`.'.^.{.Q.h.g.g.g.j.j.h.j.j.k.g.b 3 k k k k v y q 4 a i.T.{..X@X@X@X.X[.U.` n n n n i M V V V n '   ",
"    P.,X=X'.`.'.'.'.'.'.'.'.'.'.{.R.h.g.j.j.j.j.h.k.j.S.k.B 3 < k k k k v k v v k 4 y Z ] p.a.p.' Z y v n n n n n M n Z n n     ",
"    /.-X=X].].'.'.].].].].{.].{.Q.j.j.j.j.j.j.k.S.j.S.D.W , 4 z k k q k k w k k y y y q < 8 < 8 y v n u v n n n n a n n n a     ",
"      =X=X{.].].{.].{.].{.].{.(.j.B.j.S.k.k.S.S.S.S.S.F.b 3 < z q < z < q q q k y k v v v y y v y i n y b n u n n n n n v /     ",
"      -X*X.X{. X{.{.{. X{.XX{.D.S.S.S.D.F.F.D.S.i.F.G.f.3 , , 3 q 3 < q q q q k q y y y q y y y y v y n u i y i u y n u n       ",
"        -X@X{.XXXX X{.XXXX.X^.S.D.D.D.D.D.D.G.G.E F.W.s.- 3 3 e , e 3 < < q k q q q q v y q y y y v y y b y u i u u n y '       ",
"        -X&XXX.XXX.X.XXX.XXXK.G.G.G.G.G.R.R.R.I.q s.^.j.- ; , 3 3 q , z < 4 < < < q q < < y q y w y y y y y y y y u u y         ",
"          =X@X+X@X@X@X@X@X].G.R.R.R.R.R.R.R.R.R.< B ^.G., - , ; , , < , , < < < < < < < q q q q q q y q y y y y y y y /         ",
"          >X&X$X$X#X$X#X$X^.R.R.R.R.R.R.W.W.Q.W.w o ' ].S & ; 3 , , , , , > , < < < < e < q q e q q q q y < y y r y u           ",
"            *X$X$X$X$X&X$XQ.W.Q.Q.Q.Q.Q.Q.Q.^.`.a : % R a., ; ; , - , ; , , , , , , 9 < < < 9 < 9 q 9 q y y y y y <             ",
"              =X&X=X=X=X.XQ.^.^.`.^.`.`.`.`.`.].R : - % w z - ; - , ; ; > , ; , , < , , , , < , < < q q < 8 r y < p             ",
"                =X-X=X:X.X^.(.`.`.`.`.'.'.'.'.{.a.o - - : - - - - ; ; ; ; ; ; , = , > , > e < 9 < e < 9 < y 8 > a               ",
"                  -X>X>X.X'.].'.].].].].].].].{.'.= & - - * * - - - ; 1 ; ; , = = , = > , > , , , < $ < < < > y                 ",
"                    ,X3X.X{.{.{.{.{.{.{.{. X{.{.+XR O & : * * * * ; * ; ; ; = ; = , , > , , , e , < < < < > 9                   ",
"                      5X.X{. XXXXX XXX XXXXXXXXX+X).& & & * : * * : * * * = * * = = = = 1 , > , , > $ < $ $                     ",
"                        @X.X.X.X+X.X.X+X.X@X+X@X+X&Xu.X & & & & & : & & = * = * 1 1 > = = > > > > > > * 0                       ",
"                          #X@X#X@X@X#X$X#X#X#X$X#X$X&Xs X & & & & * & & & * = & * * = = = = 1 1 > 1 * g                         ",
"                            *X$X$X&X&X&X&X&X&X&X&X&X*XOX0 o # @ & & & & & * & = * = $ 1 * * 1 1 # >                             ",
"                                =X=X=X=X=X=X=X=X-X*X*X>X$Xs X + & & % & & & & & & * & * * $ # # p                               ",
"                                  >X>X-X-X-X-X:X-X;X>X-X1X1Xy.O X O & # & & & & & & # * # # r                                   ",
"                                        3X,X>X,X>X,X,X,X1X5X8X|.j @ X X + + + % % + + # r                                       ",
"                                            4X4X5X4X5X4X6X6X7X8X8X&Xc.j 0 $ $ $ 9 t f                                           ",
"                                                    8X8X8X8X8X8X8X8X8X8X3X                                                      "
};
